<svg xmlns="http://www.w3.org/2000/svg" width="59" height="41.3" viewBox="0 0 59 41.3">
  <path id="Icon_awesome-vote-yea" data-name="Icon awesome-vote-yea" d="M56.05,28.8h-5.9v5.9h2.065a.823.823,0,0,1,.885.738v1.475a.823.823,0,0,1-.885.737H6.785a.823.823,0,0,1-.885-.737V35.438a.823.823,0,0,1,.885-.738H8.85V28.8H2.95A2.947,2.947,0,0,0,0,31.75V40.6a2.947,2.947,0,0,0,2.95,2.95h53.1A2.947,2.947,0,0,0,59,40.6V31.75A2.947,2.947,0,0,0,56.05,28.8ZM47.2,34.7V5.228A2.976,2.976,0,0,0,44.222,2.25H14.787A2.984,2.984,0,0,0,11.8,5.228V34.7ZM19.47,17.922l2.351-2.332a.982.982,0,0,1,1.4.009l3.807,3.835,8.776-8.7a.982.982,0,0,1,1.4.009l2.332,2.351a.982.982,0,0,1-.009,1.4L27.7,26.219a.982.982,0,0,1-1.4-.009L19.47,19.323A.982.982,0,0,1,19.47,17.922Z" transform="translate(0 -2.25)" fill="#fff"/>
</svg>
