<svg xmlns="http://www.w3.org/2000/svg" width="59.52" height="37.877" viewBox="0 0 59.52 37.877">
  <path id="Icon_material-people" data-name="Icon material-people" d="M42.082,23.733a8.116,8.116,0,1,0-8.116-8.116A8.083,8.083,0,0,0,42.082,23.733Zm-21.644,0a8.116,8.116,0,1,0-8.116-8.116A8.083,8.083,0,0,0,20.438,23.733Zm0,5.411c-6.3,0-18.938,3.165-18.938,9.469v6.764H39.377V38.613C39.377,32.309,26.742,29.144,20.438,29.144Zm21.644,0c-.785,0-1.677.054-2.624.135,3.138,2.273,5.33,5.33,5.33,9.334v6.764H61.02V38.613C61.02,32.309,48.386,29.144,42.082,29.144Z" transform="translate(-1.5 -7.5)" fill="#fff"/>
</svg>
